<?xml version="1.0" encoding="iso-8859-1"?>
<!-- Generator: Adobe Illustrator 19.0.0, SVG Export Plug-In . SVG Version: 6.00 Build 0)  -->
<svg version="1.1" xmlns="http://www.w3.org/2000/svg" xmlns:xlink="http://www.w3.org/1999/xlink" x="0px" y="0px"
	 viewBox="0 0 512 512" style="enable-background:new 0 0 512 512;" xml:space="preserve">
<g id="_x32_3_x2C__game_x2C__app_x2C__android_x2C__digital_x2C__interaction">
	<g id="XMLID_546_">
		<g id="XMLID_547_">
			<path id="XMLID_561_" d="M121,401h270V91H121V401z M151,221c0-33.084,26.916-60,60-60h90c33.084,0,60,26.916,60,60v93.345
				C361,329.043,349.043,341,334.345,341c-13.084,0-24.142-9.367-26.293-22.272l-6.291-37.747C301.506,280.984,301.255,281,301,281
				h-90c-0.255,0-0.506-0.016-0.761-0.019l-6.291,37.747C201.797,331.633,190.739,341,177.655,341
				C162.958,341,151,329.043,151,314.345V221z"/>
			<path id="XMLID_228_" d="M177.655,331c8.175,0,15.084-5.853,16.428-13.917l6.178-37.065
				c-16.341-2.966-30.396-12.561-39.261-25.902v60.228C161,323.528,168.472,331,177.655,331z"/>
			<path id="XMLID_553_" d="M211,271h90c27.57,0,50-22.43,50-50s-22.43-50-50-50h-90c-27.57,0-50,22.43-50,50S183.43,271,211,271z
				 M216,256c-5.523,0-10-4.477-10-10c0-5.523,4.477-10,10-10c5.523,0,10,4.477,10,10C226,251.523,221.523,256,216,256z M281,221h15
				v-15c0-2.761,2.239-5,5-5s5,2.239,5,5v15h15c2.761,0,5,2.239,5,5s-2.239,5-5,5h-15v15c0,2.761-2.239,5-5,5s-5-2.239-5-5v-15h-15
				c-2.761,0-5-2.239-5-5S278.239,221,281,221z M236,216c5.523,0,10,4.477,10,10c0,5.523-4.477,10-10,10c-5.523,0-10-4.477-10-10
				C226,220.477,230.477,216,236,216z M216,196c5.523,0,10,4.477,10,10c0,5.523-4.477,10-10,10c-5.523,0-10-4.477-10-10
				C206,200.477,210.477,196,216,196z M196,216c5.523,0,10,4.477,10,10c0,5.523-4.477,10-10,10c-5.523,0-10-4.477-10-10
				C186,220.477,190.477,216,196,216z"/>
			<path id="XMLID_221_" d="M311.739,280.018l6.178,37.065c1.344,8.064,8.253,13.917,16.428,13.917
				c9.184,0,16.655-7.472,16.655-16.655v-60.228C342.135,267.457,328.08,277.052,311.739,280.018z"/>
			<path id="XMLID_549_" d="M121,446c0,19.299,15.701,35,35,35h200c19.299,0,35-15.701,35-35v-35H121V446z M236,441h40
				c2.761,0,5,2.238,5,5s-2.239,5-5,5h-40c-2.761,0-5-2.238-5-5S233.239,441,236,441z"/>
			<path id="XMLID_218_" d="M356,31H156c-19.299,0-35,15.701-35,35v15h270V66C391,46.701,375.299,31,356,31z"/>
		</g>
	</g>
</g>
<g id="Layer_1">
</g>
</svg>
