<?xml version="1.0" encoding="iso-8859-1"?>
<!-- Generator: Adobe Illustrator 24.1.0, SVG Export Plug-In . SVG Version: 6.00 Build 0)  -->
<svg version="1.1" xmlns="http://www.w3.org/2000/svg" xmlns:xlink="http://www.w3.org/1999/xlink" x="0px" y="0px"
	 viewBox="0 0 512 512" style="enable-background:new 0 0 512 512;" xml:space="preserve">
<g id="_x30_6_x2C__gmail_x2C__email_x2C__mail_x2C__logo_x2C__google_hangouts_x2C__mailing_x2C__google_x2C__logotype">
	<g>
		<g>
			<path d="M256,1C115.049,1,1,115.068,1,256c0,140.951,114.068,255,255,255c140.951,0,255-114.068,255-255
				C511,115.049,396.932,1,256,1z"/>
			<path style="fill:#FFFFFF;" d="M425.604,159.862c-1.742-25.962-37.578-45.706-66.306-21.855
				c-6.684,5.548-80.505,60.774-102.494,77.261c-0.473,0.355-1.136,0.354-1.606,0.001c-21.915-16.431-95.891-71.782-102.495-77.261
				c-28.439-23.611-64.538-4.5-66.306,21.854c-0.231,3.439-0.168,197.609-0.168,197.729c0,15.025,12.225,27.25,27.25,27.25h52.578
				c2.762,0,5-2.238,5-5V262.401l77.706,58.771c4.262,3.223,10.211,3.222,14.475,0c0.708-0.536,13.266-10.034,77.706-58.771v117.441
				c0,2.762,2.238,5,5,5h52.578c15.025,0,27.25-12.225,27.25-27.25C425.717,135.968,425.972,165.351,425.604,159.862z
				 M350.943,156.921c4.313-3.67,9.991-7.275,14.741-11.22c22.09-18.34,48.715-3.457,49.941,14.831
				c0.722,10.763,0.199,21.995,0.048,32.808l-64.73,48.958V156.921z M96.373,160.532c1.261-18.782,28.249-32.841,49.942-14.83
				c4.896,4.064,10.292,7.433,14.741,11.219v85.377l-64.73-48.958L96.373,160.532z M113.479,374.842
				c-9.512,0-17.25-7.738-17.25-17.25V205.805l64.828,49.032v120.005H113.479z M257.204,313.195c-0.709,0.537-1.699,0.537-2.408,0
				l-83.739-63.334v-85.189l78.142,58.597c4.006,3.002,9.599,3.001,13.604-0.001l78.141-58.596v85.189L257.204,313.195z
				 M398.521,374.842h-47.578V254.837l64.828-49.032v151.787C415.771,367.104,408.033,374.842,398.521,374.842z"/>
		</g>
	</g>
</g>
<g id="Layer_1">
</g>
</svg>
