<?xml version="1.0" encoding="iso-8859-1"?>
<!-- Generator: Adobe Illustrator 24.1.0, SVG Export Plug-In . SVG Version: 6.00 Build 0)  -->
<svg version="1.1" xmlns="http://www.w3.org/2000/svg" xmlns:xlink="http://www.w3.org/1999/xlink" x="0px" y="0px"
	 viewBox="0 0 512 512" style="enable-background:new 0 0 512 512;" xml:space="preserve">
<g id="_x32_1_x2C__Reddit_x2C__logo_x2C__brands_and_logotypes_x2C__brands_x2C__logos_x2C__logotype_x2C__social_network_x2C__social_media">
	<g>
		<g>
			<path d="M256,1C115.049,1,1,115.068,1,256c0,140.951,114.068,255,255,255c140.951,0,255-114.068,255-255
				C511,115.049,396.932,1,256,1z"/>
			<path style="fill:#FFFFFF;" d="M388.105,208.765c-0.156-0.008-15.223-0.485-27.368,8.789
				c-27.486-16.738-61.666-25.735-96.357-27.056l21.862-58.42L338.2,145.04c0.171,20.208,16.657,36.597,36.904,36.597
				c20.354,0,36.913-16.56,36.913-36.913s-16.56-36.913-36.913-36.913c-17.008,0-31.357,11.566-35.618,27.243l-55.153-13.76
				c-2.465-0.614-5.002,0.719-5.893,3.1l-24.677,65.943c-36.941,0.263-73.75,9.204-102.994,26.833
				c-12.183-9.017-26.794-8.406-26.867-8.406c-29.376,0.902-42.755,23.159-42.755,43.457c0,17.385,10.951,30.324,17.423,36.449
				c-3.982,35.803,16.926,65.691,47.368,85.618c60.852,39.902,158.138,39.887,218.961,0.002
				c37.138-24.301,50.356-56.038,47.479-84.649c6.204-5.619,18.475-19.064,18.475-37.42
				C430.853,231.922,417.462,209.665,388.105,208.765z M375.104,117.811c14.84,0,26.913,12.073,26.913,26.913
				s-12.073,26.913-26.913,26.913s-26.912-12.073-26.912-26.913S360.265,117.811,375.104,117.811z M403.938,283.719
				c-1.347,1.101-2.024,2.822-1.79,4.546c4.405,32.372-15.06,59.556-42.728,77.659c-57.525,37.724-150.495,37.708-208.001-0.002
				c-28.038-18.352-47.36-45.756-42.609-78.486c0.245-1.688-0.388-3.385-1.678-4.5c-4.806-4.157-15.984-15.472-15.984-30.716
				c0-19.193,13.684-33.467,33.381-33.467c1.896,0,13.822,0.328,22.456,8.236c1.667,1.525,4.151,1.745,6.061,0.531
				c57.404-36.517,148.601-36.154,205.436,0.418c1.94,1.247,4.485,1.007,6.156-0.587c9.32-8.888,22.961-8.605,23.117-8.593
				c22.864,0.701,33.099,17.311,33.099,33.461C420.853,268.62,407.905,280.476,403.938,283.719z"/>
			<path style="fill:#FFFFFF;" d="M235.8,279.538c0-15.909-12.943-28.853-28.853-28.853c-15.91,0-28.854,12.943-28.854,28.853
				s12.943,28.853,28.854,28.853C222.856,308.391,235.8,295.447,235.8,279.538z M188.094,279.538
				c0-10.396,8.458-18.853,18.854-18.853s18.853,8.457,18.853,18.853s-8.457,18.853-18.853,18.853S188.094,289.934,188.094,279.538z
				"/>
			<path style="fill:#FFFFFF;" d="M306.974,250.686c-15.909,0-28.853,12.943-28.853,28.853s12.943,28.853,28.853,28.853
				c15.91,0,28.854-12.943,28.854-28.853S322.884,250.686,306.974,250.686z M306.974,298.391c-10.396,0-18.853-8.457-18.853-18.853
				s8.457-18.853,18.853-18.853s18.854,8.457,18.854,18.853S317.369,298.391,306.974,298.391z"/>
			<path style="fill:#FFFFFF;" d="M308.993,333.993c-0.202,0.182-20.632,18.153-52.418,18.153c-31.47,0-52.972-16.243-53.871-16.935
				c-2.191-1.683-5.329-1.271-7.012,0.918c-1.683,2.19-1.271,5.329,0.918,7.012c1.011,0.776,25.135,19.005,59.965,19.005
				c35.598,0,58.152-19.863,59.096-20.709c2.055-1.843,2.226-5.002,0.383-7.058C314.213,332.325,311.052,332.152,308.993,333.993z"
				/>
		</g>
	</g>
</g>
<g id="Layer_1">
</g>
</svg>
