<?xml version="1.0" encoding="iso-8859-1"?>
<!-- Generator: Adobe Illustrator 24.1.0, SVG Export Plug-In . SVG Version: 6.00 Build 0)  -->
<svg version="1.1" xmlns="http://www.w3.org/2000/svg" xmlns:xlink="http://www.w3.org/1999/xlink" x="0px" y="0px"
	 viewBox="0 0 512 512" style="enable-background:new 0 0 512 512;" xml:space="preserve">
<g id="_x31_2_x2C__Spotify_x2C__logo_x2C__brands_and_logotypes_x2C__brands_x2C__logos_x2C__logotype_x2C__social_network_x2C__social_media">
	<g>
		<g>
			<path d="M256,1C115.049,1,1,115.068,1,256c0,140.951,114.068,255,255,255c140.951,0,255-114.068,255-255
				C511,115.049,396.932,1,256,1z"/>
			<path style="fill:#FFFFFF;" d="M256.345,81.147c-0.108,0-0.211,0-0.319,0c-97.103,0-174.792,78.855-174.878,174.678
				c-0.087,96.627,78.237,175.025,174.849,175.027c0.003,0,0.003,0,0.006,0c96.625,0,174.933-78.411,174.851-175.018
				C430.771,159.683,352.486,81.318,256.345,81.147z M255.996,420.853c-91.094-0.002-164.931-73.937-164.849-165.018
				c0.083-91.802,74.787-164.688,164.878-164.688c0.1,0,0.202,0,0.302,0c90.642,0.161,164.447,74.043,164.525,164.695
				C420.931,346.939,347.077,420.854,255.996,420.853z"/>
			<path style="fill:#FFFFFF;" d="M372.297,213.38c-62.954-39.864-153.189-44.679-223.497-21.24
				c-2.668,0.889-10.785,3.595-11.937,13.172c-1.495,12.423,8.711,20.633,22.863,16.194
				c68.133-21.394,145.029-14.205,195.898,18.309c9.124,5.832,18.46,5.547,24.232-3.217
				C384.63,229.351,383.445,220.441,372.297,213.38z M371.506,231.098c-1.214,1.843-3.243,4.926-10.495,0.291
				c-57.904-37.011-138.536-40.066-204.28-19.424c-3.654,1.147-6.845,0.993-8.537-0.413c-1.51-1.254-1.596-3.437-1.402-5.047
				c0.251-2.082,1.177-3.547,5.171-4.879c71.741-23.915,158.137-15.797,214.985,20.203c3.155,1.998,5.104,4.078,5.486,5.856
				C372.514,228.059,372.759,229.196,371.506,231.098z"/>
			<path style="fill:#FFFFFF;" d="M353.457,269.834c-57.498-40.698-127.005-43.745-196.522-29.307
				c-10.652,2.213-14.692,10.991-13.177,18.52c1.5,7.451,8.752,14.274,19.222,12.226c74.438-14.505,127.458-7.169,171.919,23.788
				c4.965,3.457,9.602,5.537,15.485,3.55c6.232-2.104,10.182-6.741,11.12-13.058C362.712,277.423,357.489,272.688,353.457,269.834z
				 M351.613,284.083c-0.386,2.591-1.751,4.148-4.43,5.053c-1.759,0.598-3.112,0.127-6.57-2.282
				c-53.867-37.504-114.855-38.004-179.546-25.396c-4.701,0.91-6.983-1.789-7.506-4.384c-0.526-2.614,0.618-5.761,5.406-6.756
				c77.835-16.164,139.563-7.111,188.712,27.678C351.722,280.857,351.847,282.508,351.613,284.083z"/>
			<path style="fill:#FFFFFF;" d="M333.101,311.729c-46.5-31.071-112.376-33.741-166.845-23.394
				c-12.316,2.337-17.442,10.938-15.68,19.114c1.568,7.28,8.016,14.192,21.409,11.78c41.51-7.493,100.231-10.334,144.253,18.695
				c8.027,5.293,17.291,2.822,21.915-4.145C342.421,327.351,342.056,317.711,333.101,311.729z M329.821,328.25
				c-1.416,2.134-4.381,3.764-8.078,1.326c-43.164-28.464-100.646-29.375-151.534-20.188c-8.651,1.563-9.527-2.511-9.857-4.045
				c-0.888-4.122,3.645-6.4,7.77-7.184c61.766-11.729,121.361-3.548,159.425,21.884C331.49,322.679,331.308,326.011,329.821,328.25z
				"/>
		</g>
	</g>
</g>
<g id="Layer_1">
</g>
</svg>
