<?xml version="1.0" encoding="iso-8859-1"?>
<!-- Generator: Adobe Illustrator 24.1.0, SVG Export Plug-In . SVG Version: 6.00 Build 0)  -->
<svg version="1.1" xmlns="http://www.w3.org/2000/svg" xmlns:xlink="http://www.w3.org/1999/xlink" x="0px" y="0px"
	 viewBox="0 0 512 512" style="enable-background:new 0 0 512 512;" xml:space="preserve">
<g id="_x30_2_x2C__tiktok_x2C__social_media_x2C__logo_x2C__logotype_x2C__brand_x2C__sm_x2C__tik_tok">
	<g>
		<g>
			<path d="M256,1C115.049,1,1,115.07,1,256c0,140.951,114.068,255,255,255c140.951,0,255-114.068,255-255
				C511,115.05,396.931,1,256,1z"/>
			<path style="fill:#FFFFFF;" d="M406.082,173.198c-3.766,0-7.555-0.303-11.309-0.894c-0.002-1.896-0.005-4.546-0.003-8.294
				c0-2.565-1.967-4.944-5.078-5c-13.852,0-27.306-3.946-38.969-11.404c-11.287-13.153-17.502-29.9-17.495-47.246
				c0.002-2.755-2.234-5.002-5-5.002h-10.701c-0.393-3.055-0.606-6.139-0.609-9.215c-0.002-2.76-2.24-4.996-5-4.996h-55.96
				c-2.761,0-4.999,2.237-5,4.998l-0.094,224.178c-1.222,31.138-33.858,49.143-60.421,36.036
				c-4.748-6.955-7.257-15.052-7.257-23.498c0.028-27.931,27.214-48.656,54.42-40.104c3.211,1.008,6.499-1.388,6.499-4.771v-57.13
				c0-2.49-1.832-4.6-4.297-4.95c-4.391-0.624-8.183-0.914-12.013-0.997v-8.249c0-2.49-1.832-4.6-4.297-4.95
				c-64.192-9.117-122.581,41.332-122.581,106.947c0,34.928,17.072,67.828,45.685,88.12c33.902,36.198,77.925,33.925,78.625,34.075
				c59.552,0,108-48.445,108-107.992V218.494c21.84,13.559,46.774,20.679,72.688,20.679c3.165,0,5.167-2.417,5.167-5v-55.975
				C411.082,175.437,408.844,173.198,406.082,173.198z M314.83,190.867c-3.305-2.378-7.92-0.007-7.92,4.059v113.724
				c0,55.229-45.938,100.025-101.8,97.93c-18.645-0.717-36.51-6.701-51.921-17.405c-16.726-18.076-26.582-42.506-25.927-68.746
				c1.257-50.075,41.026-91.477,90.535-95.263v32.245c-55.91-10.008-86.628,67.683-34.065,96.751
				c9.445,12.551,24.792,20.72,41.493,20.737c28.057,0,50.897-21.975,51.953-50.099c0.007-0.151,0,6.955,0.089-219.441h31.923
				c4.85,20.164,17.418,38.279,34.869,49.844c10.93,12.376,25.445,21.105,40.708,25.204v34.464
				C358.855,213.881,334.749,205.194,314.83,190.867z M384.77,169.993c-1.536-0.475-2.545-0.817-4.357-1.505
				c1.446,0.163,2.899,0.289,4.357,0.376V169.993z M325.813,120.882c-2.683-4.933-4.701-9.823-6.275-15.524h3.839
				C323.695,110.625,324.515,115.82,325.813,120.882z M260.86,310.605c0.007-0.151,0,6.949,0.096-219.458h46.118
				c0.086,1.403,0.208,2.804,0.365,4.2h-35.172c-2.789,0-5.003,2.271-5.004,5.009c-0.019,39.997-0.073,223.772-0.112,224.566
				c-1.476,30.276-33.255,48.827-60.218,35.726C235.641,361.763,259.786,339.558,260.86,310.605z M227.8,224.892
				c2.106,0.066,4.213,0.201,6.306,0.403v46.316c-34.946-6.295-66.492,24.613-60.112,60.4
				c-21.879-32.661,9.786-75.272,47.299-63.453c3.257,1.028,6.507-1.452,6.507-4.771V224.892z M110.918,308.657
				c0-57.895,50.174-103.024,106.878-97.558v4.035c-68.156,4.628-115.339,71.274-96.425,137.429
				C114.596,339.103,110.918,324.097,110.918,308.657z M323.228,322.86c0,66.983-66.175,114.471-129.654,92.705
				c65.103,9.317,123.341-41.474,123.341-106.912V204.286c0.925,0.574,4.156,2.495,6.438,3.745
				C323.116,209.059,323.272,201.568,323.228,322.86z M401.082,229.083c-11.785-0.437-23.319-2.468-34.364-6.018
				c7.471,1.244,15.4,1.901,23.051,1.901c2.879,0,5-2.423,5-5v-37.55c2.099,0.29,4.205,0.5,6.313,0.629V229.083z"/>
		</g>
	</g>
</g>
<g id="Layer_1">
</g>
</svg>
