<?xml version="1.0" encoding="iso-8859-1"?>
<!-- Generator: Adobe Illustrator 24.1.0, SVG Export Plug-In . SVG Version: 6.00 Build 0)  -->
<svg version="1.1" xmlns="http://www.w3.org/2000/svg" xmlns:xlink="http://www.w3.org/1999/xlink" x="0px" y="0px"
	 viewBox="0 0 512 512" style="enable-background:new 0 0 512 512;" xml:space="preserve">
<g id="_x30_2_x2C__tiktok_x2C__social_media_x2C__logo_x2C__logotype_x2C__brand_x2C__sm_x2C__tik_tok">
	<g>
		<g>
			<path d="M206.151,201.817v-19.89c-6.902-0.98-13.866-1.485-20.836-1.519c-85.264,0-154.634,69.381-154.634,154.646
				c0,52.302,26.14,98.603,66.015,126.602c-26.701-28.554-41.547-66.191-41.524-105.284
				C55.172,272.32,122.57,203.777,206.151,201.817"/>
			<path d="M209.801,426.988c38.045,0,69.075-30.265,70.492-67.982l0.13-336.689h61.51C340.618,15.285,339.955,8.151,339.95,1
				h-84.012l-0.142,336.7c-1.4,37.705-32.447,67.959-70.48,67.959c-11.418,0.006-22.666-2.777-32.764-8.109
				C165.783,416.012,187.089,426.965,209.801,426.988 M456.828,136.606v-18.711c-22.604,0.023-44.726-6.556-63.647-18.921
				c16.592,19.102,38.923,32.305,63.658,37.632"/>
			<path d="M393.181,98.957c-18.541-21.216-28.758-48.443-28.746-76.623h-22.508C347.815,53.806,366.339,81.499,393.181,98.957
				 M185.316,264.42c-38.986,0.045-70.577,31.636-70.622,70.622c0.023,26.247,14.597,50.319,37.847,62.513
				c-8.687-11.979-13.362-26.389-13.362-41.184c0.04-38.986,31.631-70.588,70.622-70.633c7.276,0,14.251,1.201,20.836,3.27v-85.769
				c-6.902-0.98-13.866-1.485-20.836-1.519c-1.224,0-2.431,0.068-3.644,0.091v65.879
				C199.414,265.548,192.387,264.443,185.316,264.42"/>
			<path d="M456.828,136.606v65.296c-43.57,0-83.921-13.934-116.884-37.586v170.733c0,85.264-69.358,154.634-154.623,154.634
				c-32.951,0-63.505-10.398-88.619-28.032c29.188,31.478,70.174,49.361,113.098,49.35c85.264,0,154.634-69.37,154.634-154.623
				V185.644c34.05,24.485,74.946,37.637,116.884,37.586v-84.035c-8.409,0-16.586-0.912-24.496-2.607"/>
			<path d="M339.938,335.043V164.31c34.05,24.491,74.946,37.637,116.884,37.586v-65.29c-24.729-5.332-47.061-18.541-63.647-37.649
				c-26.842-17.459-45.366-45.151-51.254-76.623h-61.505l-0.13,336.689c-1.411,37.705-32.447,67.97-70.492,67.97
				c-22.706-0.023-44.018-10.982-57.243-29.432c-23.25-12.189-37.83-36.26-37.858-62.513c0.045-38.986,31.636-70.577,70.622-70.622
				c7.265,0,14.24,1.19,20.836,3.27v-65.879C122.57,203.777,55.172,272.32,55.172,356.371c0,40.646,15.793,77.649,41.524,105.284
				c25.941,18.263,56.898,28.049,88.619,28.021C270.586,489.677,339.938,420.307,339.938,335.043"/>
		</g>
	</g>
</g>
<g id="Layer_1">
</g>
</svg>
