<?xml version="1.0" encoding="iso-8859-1"?>
<!-- Generator: Adobe Illustrator 24.1.0, SVG Export Plug-In . SVG Version: 6.00 Build 0)  -->
<svg version="1.1" xmlns="http://www.w3.org/2000/svg" xmlns:xlink="http://www.w3.org/1999/xlink" x="0px" y="0px"
	 viewBox="0 0 512 512" style="enable-background:new 0 0 512 512;" xml:space="preserve">
<g id="_x34_3_x2C__Youtube_x2C__logo_x2C__brands_and_logotypes_x2C__brands_x2C__logos_x2C__logotype_x2C__social_network_x2C__social_media">
	<g>
		<g>
			<path d="M256,1C115.049,1,1,115.068,1,256c0,140.951,114.068,255,255,255c140.951,0,255-114.068,255-255
				C511,115.049,396.932,1,256,1z"/>
			<path style="fill:#FFFFFF;" d="M310.119,248.329l-83.747-45.576c-3.332-1.816-7.39,0.609-7.39,4.392
				c0,2.57-0.005-17.797,0.022,90.814c0,3.782,4.049,6.193,7.377,4.398l83.725-45.237
				C313.598,255.232,313.595,250.219,310.119,248.329z M229.003,289.574c-0.002-7.606-0.017-67.144-0.019-74.015l68.256,37.146
				L229.003,289.574z"/>
			<path style="fill:#FFFFFF;" d="M416,243.716c0-16.888-1.318-36.408-3.161-52.993c-0.133-0.976-3.354-24.014-13.574-34.805
				c-11.935-13.01-25.162-14.349-32.268-15.068c-38.324-3.882-155.268-5.072-219.896-0.207
				c-13.752,1.085-24.516,4.547-34.323,15.229c-10.26,10.851-13.491,33.885-13.634,34.942c-4.479,37.932-2.764,67.968-3.145,77.408
				c0,26.171,3.113,52.659,3.155,53.007c0.132,0.975,3.363,23.996,13.571,34.785c13.099,14.28,29.929,13.971,36.925,15.332
				c16.438,3.182,162.702,5.295,217.397-0.267c7.099-0.723,20.312-2.067,32.161-15.018c10.274-10.847,13.496-33.867,13.639-34.922
				C417.337,283.13,415.599,253.636,416,243.716z M402.929,319.876c-0.779,5.751-4.271,22.228-11.037,29.372
				c-9.335,10.201-19.677,11.254-25.855,11.883c-40.577,4.107-175.583,5.172-219.017-0.261c-7.313-0.91-18.365-2.286-26.977-11.673
				c-6.676-7.057-10.189-23.557-10.969-29.232c-0.03-0.259-3.074-26.182-3.074-51.743c0.453-11.316-1.449-36.209,3.063-76.142
				c0.79-5.766,4.304-22.276,11.03-29.392c9.4-10.237,19.77-11.267,25.964-11.882c46.44-4.604,177.238-4.331,219.932-0.008
				c6.188,0.626,16.545,1.675,25.96,11.938c6.668,7.04,10.176,23.485,10.975,29.289c0.138,1.18,3.076,26.614,3.076,51.69
				C405.573,254.364,407.414,280.795,402.929,319.876z"/>
		</g>
	</g>
</g>
<g id="Layer_1">
</g>
</svg>
